<mxfile host="app.diagrams.net" modified="2023-10-17T03:02:09.695Z" agent="Mozilla/5.0 (Windows NT 10.0; Win64; x64) AppleWebKit/537.36 (KHTML, like Gecko) Chrome/118.0.0.0 Safari/537.36" version="22.0.4" etag="IAzwS0U-3qDoF4Db4_XB" type="github">
  <diagram name="Page-1" id="chjzMiBYdTjJ0SgafcZK">
    <mxGraphModel>
      <root>
        <mxCell id="0" />
        <mxCell id="1" parent="0" />
      </root>
    </mxGraphModel>
  </diagram>
</mxfile>
